<svg width="500" height="500" viewBox="0 0 500 500" fill="none" xmlns="http://www.w3.org/2000/svg">
<g clip-path="url(#clip0)">
<path fill-rule="evenodd" clip-rule="evenodd" d="M250 500C111.924 500 0 391.657 0 258C0 124.348 111.924 16 250 16C388.07 16 500 124.348 500 258C500 391.657 388.07 500 250 500Z" fill="#58BB8C"/>
<path d="M337.595 258.728C305.569 308.19 298.62 314.472 298.62 314.472C293.441 323.475 281.843 327.815 272.652 331.555C246.24 342.345 221.987 358.54 212.226 375.332H155.629C145.369 306.383 186.927 306.383 186.927 306.383C192.107 305.784 203.098 304.474 215.21 304.587C268.331 303.987 280.451 289.3 280.451 289.3C293.139 274.024 296.02 268.614 318.557 238.052C332.463 219.138 336.349 226.03 341.683 228.793C355.649 236.038 337.595 258.728 337.595 258.728Z" fill="#484B4D"/>
<path d="M286.781 148.289C267.742 148.289 252.308 163.958 252.308 183.289C252.308 202.62 267.742 218.299 286.781 218.299C305.809 218.299 321.234 202.619 321.234 183.289C321.234 163.959 305.809 148.289 286.781 148.289Z" fill="#484B4D"/>
<path d="M274.584 190.657C274.805 195.664 279.087 198.654 285.002 199.38V184.472C274.584 182.558 269.858 180.197 269.858 173.609C269.858 166.806 276.507 162.186 285.002 161.793V158.077H289.061V161.852C297.038 162.583 301.687 166.515 303.606 172.99H297.324C296.372 169.333 293.488 167.09 289.062 166.466V180.299L293.488 181.207C297.252 181.934 305.239 184.751 305.239 191.668C305.239 198.928 298.436 203.317 289.062 203.876V208.49H285.003V203.876C275.329 203.149 269.119 198.422 268.303 190.657H274.584ZM285.002 166.294C280.276 166.697 276.508 168.828 276.508 173.098C276.508 177.094 280.05 178.336 285.002 179.465V166.294ZM289.062 199.38C294.609 199.046 298.585 197.014 298.585 192.179C298.585 187.894 294.449 186.44 289.062 185.258V199.38Z" fill="#F4F8F8"/>
<path d="M221.165 200.769C198.328 200.769 179.813 219.579 179.813 242.784C179.813 265.972 198.328 284.784 221.165 284.784C244.006 284.784 262.523 265.973 262.523 242.784C262.523 219.579 244.006 200.769 221.165 200.769Z" fill="#FC6E51"/>
<path d="M234.861 242.057V241.949C239.604 240.476 242.467 237.354 242.467 233.211C242.467 229.387 239.814 226.599 236.447 225.072C234.219 224.041 230.484 223.756 226.879 223.688V214.214H223.023V223.649C222.985 223.649 222.938 223.649 222.897 223.649H214.938V214.214H211.077V223.649H204.329V262.65H211.077V271.339H214.938V262.65H223.022V271.339H226.878V262.65H229.057C239.241 262.65 244.617 257.181 244.617 251.453C244.617 246.647 241.175 243.044 234.861 242.057ZM224.625 228.636C229.915 228.636 234.434 229.323 234.434 234.193C234.434 237.88 231.589 239.799 224.625 239.799H212.362V228.636H224.625ZM227.826 257.608H212.475V245.469H226.475C231.639 245.469 236.471 246.744 236.471 251.324C236.471 255.144 233.12 257.608 227.826 257.608Z" fill="#F4F8F8"/>
<path d="M215.54 124C199.082 124 185.741 137.548 185.741 154.268C185.741 170.988 199.082 184.536 215.54 184.536C231.999 184.536 245.343 170.988 245.343 154.268C245.343 137.548 231.999 124 215.54 124Z" fill="#484B4D"/>
<path d="M227.729 143.262C224.709 141.009 221.679 139.88 218.529 139.88C215.316 139.88 212.673 140.916 210.552 143.021C208.814 144.735 207.658 146.885 206.951 149.584H225.159L223.422 152.578H206.495C206.435 153.113 206.435 153.648 206.435 154.095C206.435 154.488 206.435 154.832 206.495 155.121H222.518L220.849 158.116H206.821C208.235 165.135 212.293 168.66 219.047 168.66C221.106 168.66 222.903 168.365 224.512 167.727C225.737 167.242 227.222 166.353 228.952 165.135V170.279C226.053 171.703 222.711 172.43 219.046 172.43C208.558 172.43 202.375 167.683 200.577 158.115H195.622L197.36 155.12H200.322C200.259 154.786 200.259 154.438 200.259 154.143C200.259 153.555 200.259 153.014 200.322 152.577H195.623L197.292 149.583H200.771C201.798 145.622 203.73 142.426 206.625 140.07C209.841 137.424 213.958 136.104 219.046 136.104C222.97 136.104 226.835 137.129 230.689 139.191L227.729 143.262Z" fill="#F4F8F8"/>
</g>
<defs>
<clipPath id="clip0">
<rect width="500" height="500" fill="white"/>
</clipPath>
</defs>
</svg>
