<svg width="512" height="512" viewBox="0 0 512 512" fill="none" xmlns="http://www.w3.org/2000/svg">
<path d="M256 512C397.385 512 512 397.385 512 256C512 114.615 397.385 0 256 0C114.615 0 0 114.615 0 256C0 397.385 114.615 512 256 512Z" fill="url(#paint0_linear)"/>
<path d="M256 469.334C138.369 469.334 42.6667 373.632 42.6667 256.001C42.6667 138.369 138.369 42.6672 256 42.6672C373.636 42.6672 469.333 138.369 469.333 256.001C469.333 373.632 373.636 469.334 256 469.334Z" fill="url(#paint1_linear)"/>
<path opacity="0.3" d="M203.046 271.367L196.369 264.691L144 317.057L196.369 369.426L203.046 362.749L162.076 321.779H339.54V312.335H162.076L203.046 271.367Z" fill="black"/>
<path opacity="0.3" d="M324.955 256.633L331.632 263.309L384 210.943L331.632 158.574L324.955 165.251L365.925 206.221H188.461V215.665H365.924L324.955 256.633Z" fill="black"/>
<path d="M195.046 263.367L188.369 256.691L136 309.057L188.369 361.426L195.046 354.749L154.076 313.779H331.54V304.335H154.076L195.046 263.367Z" fill="white"/>
<path d="M316.955 248.633L323.632 255.309L376 202.943L323.632 150.574L316.955 157.251L357.925 198.221H180.461V207.665H357.924L316.955 248.633Z" fill="white"/>
<defs>
<linearGradient id="paint0_linear" x1="3.8e-06" y1="256" x2="512" y2="256" gradientUnits="userSpaceOnUse">
<stop stop-color="#5842E2"/>
<stop offset="1" stop-color="#721EDD"/>
</linearGradient>
<linearGradient id="paint1_linear" x1="42.6667" y1="256.001" x2="469.333" y2="256.001" gradientUnits="userSpaceOnUse">
<stop stop-color="#5B1EDD"/>
<stop offset="1" stop-color="#7542E2"/>
</linearGradient>
</defs>
</svg>
